<svg width="24" height="24" viewBox="0 0 24 24" fill="none" xmlns="http://www.w3.org/2000/svg">
<path d="M23.8453 8.22436C23.728 8.10912 23.5641 8.05448 23.4011 8.0763H17.0343V5.26301C17.0343 2.48266 14.7804 0.22876 12 0.22876C9.21965 0.22876 6.96575 2.48266 6.96575 5.26301V8.0763H0.5988C0.421103 8.0763 0.243462 8.0763 0.154585 8.22436C0.0352129 8.33908 -0.0201653 8.50516 0.00653188 8.66857L2.22755 20.81C2.53783 22.5038 4.00028 23.7431 5.72193 23.7714H18.278C20.0046 23.7289 21.4639 22.4798 21.7723 20.7805L23.9934 8.66857C24.0201 8.50516 23.9647 8.33908 23.8453 8.22436ZM8.15024 5.26301C8.15024 3.13688 9.87382 1.4133 12 1.4133C14.1261 1.4133 15.8497 3.13688 15.8497 5.26301V8.0763H8.15024V5.26301ZM20.5878 20.6324C20.3883 21.7547 19.4178 22.5759 18.278 22.5869H5.72193C4.58206 22.5759 3.61155 21.7548 3.41209 20.6324L1.30953 9.26084H22.6904L20.5878 20.6324Z" fill="white"/>
<path d="M23.8453 8.22436C23.728 8.10912 23.5641 8.05448 23.4011 8.0763H17.0343V5.26301C17.0343 2.48266 14.7804 0.22876 12 0.22876C9.21965 0.22876 6.96575 2.48266 6.96575 5.26301V8.0763H0.5988C0.421103 8.0763 0.243462 8.0763 0.154585 8.22436C0.0352129 8.33908 -0.0201653 8.50516 0.00653188 8.66857L2.22755 20.81C2.53783 22.5038 4.00028 23.7431 5.72193 23.7714H18.278C20.0046 23.7289 21.4639 22.4798 21.7723 20.7805L23.9934 8.66857C24.0201 8.50516 23.9647 8.33908 23.8453 8.22436ZM8.15024 5.26301C8.15024 3.13688 9.87382 1.4133 12 1.4133C14.1261 1.4133 15.8497 3.13688 15.8497 5.26301V8.0763H8.15024V5.26301ZM20.5878 20.6324C20.3883 21.7547 19.4178 22.5759 18.278 22.5869H5.72193C4.58206 22.5759 3.61155 21.7548 3.41209 20.6324L1.30953 9.26084H22.6904L20.5878 20.6324Z" stroke="white"/>
</svg>
