<svg width="87" height="87" viewBox="0 0 87 87" fill="none" xmlns="http://www.w3.org/2000/svg">
<g clip-path="url(#clip0)">
<path d="M86.4394 29.8124C86.0143 29.3947 85.4201 29.1966 84.8292 29.2757H61.7494V19.0775C61.7494 8.99874 53.579 0.828369 43.5002 0.828369C33.4214 0.828369 25.251 8.99874 25.251 19.0775V29.2757H2.17083C1.52667 29.2757 0.882725 29.2757 0.560545 29.8124C0.127822 30.2283 -0.0729236 30.8303 0.0238535 31.4227L8.07505 75.4355C9.1998 81.5752 14.5012 86.0679 20.7422 86.1704H66.2578C72.5167 86.0165 77.807 81.4883 78.9249 75.3283L86.9761 31.4227C87.0729 30.8303 86.8722 30.2283 86.4394 29.8124ZM29.5448 19.0775C29.5448 11.3703 35.7928 5.12232 43.5 5.12232C51.2072 5.12232 57.4552 11.3703 57.4552 19.0775V29.2757H29.5448V19.0775ZM74.631 74.7914C73.9079 78.8599 70.3899 81.8368 66.2578 81.8765H20.7422C16.6101 81.8368 13.0921 78.8601 12.369 74.7914L4.74723 33.5697H82.2528L74.631 74.7914Z" fill="#CC3048"/>
<line x1="30.9457" y1="55.8567" x2="39.7985" y2="64.7095" stroke="#CC3048" stroke-width="6" stroke-linecap="round"/>
<line x1="60.9727" y1="44.2419" x2="40.2425" y2="64.972" stroke="#CC3048" stroke-width="6" stroke-linecap="round"/>
</g>
<defs>
<clipPath id="clip0">
<rect width="87" height="87" fill="white"/>
</clipPath>
</defs>
</svg>
